<?xml version="1.0" standalone="no"?>
<!DOCTYPE svg PUBLIC "-//W3C//DTD SVG 20010904//EN"
 "http://www.w3.org/TR/2001/REC-SVG-20010904/DTD/svg10.dtd">
<svg version="1.0" xmlns="http://www.w3.org/2000/svg"
 width="985.000000pt" height="1001.000000pt" viewBox="0 0 985.000000 1001.000000"
 preserveAspectRatio="xMidYMid meet">

<g transform="translate(0.000000,1001.000000) scale(0.100000,-0.100000)"
fill="#000000" stroke="none">
<path d="M84 9976 c-51 -22 -79 -72 -79 -138 0 -61 17 -94 69 -132 l27 -21
1909 -3 1910 -2 2 -553 3 -554 28 -36 c36 -48 59 -59 118 -59 59 1 63 3 191
100 57 43 410 308 784 590 l682 512 413 -2 412 -3 -1295 -971 c-1174 -881
-1297 -976 -1317 -1016 -21 -44 -21 -54 -21 -560 0 -283 3 -529 6 -546 4 -17
22 -49 41 -71 40 -47 84 -60 145 -42 28 9 720 523 2170 1612 l2130 1599 416 0
c237 0 412 -4 406 -9 -5 -5 -1188 -893 -2629 -1973 -1441 -1081 -2630 -1976
-2642 -1989 -12 -13 -26 -37 -32 -52 -8 -20 -11 -854 -11 -2775 0 -2655 1
-2748 19 -2782 26 -49 62 -72 119 -78 67 -6 124 25 152 83 20 41 20 62 20
2737 l0 2695 1356 1019 c745 560 1660 1248 2032 1528 372 280 1021 767 1442
1083 421 316 770 584 777 596 7 12 12 48 13 80 0 54 -3 61 -39 100 l-40 42
-722 3 c-677 2 -725 1 -758 -16 -20 -9 -493 -362 -1051 -783 -558 -422 -1463
-1104 -2010 -1517 l-995 -750 -3 311 c-2 286 -1 312 15 328 10 9 659 499 1443
1089 784 589 1437 1085 1452 1100 40 43 45 90 17 147 -13 27 -39 58 -58 70
l-34 23 -711 0 c-707 0 -711 0 -746 -21 -19 -12 -335 -248 -702 -525 -367
-277 -670 -504 -673 -504 -3 0 -5 208 -5 462 0 441 -1 464 -20 503 -13 26 -34
49 -59 63 l-39 22 -1998 0 c-1656 -1 -2004 -3 -2030 -14z"/>
</g>
</svg>
